# xmcd
#
# Track frame offsets: 
#        182
#        16282
#        35835
#        48262
#        60560
#        73522
#        88050
#        103795
#        117980
#        133005
#        145025
#        165805
#        177865
#        190720
#        204227
#        219367
#        233262
#        246675
#        261627
#
# Disc length: 3631 seconds
#
# Revision: 3
# Processed by: cddbd v1.5.2PL0 Copyright (c) Steve Scherf et al.
# Submitted via: ExactAudioCopy v1.0b1
#
DISCID=0a0e2d13
DTITLE=Ray Charles - Sweet and Sour Tears
DYEAR=1997
DGENRE=Soul
TTITLE0=Cry
TTITLE1=Guess i'll hang my tears out to cry
TTITLE2=A tear fell
TTITLE3=No one to cry to
TTITLE4=You've got me crying again
TTITLE5=After my laughter came tears
TTITLE6=Teardrops from my eyes
TTITLE7=Don't cry, baby
TTITLE8=Cry me a river
TTITLE9=Baby, don't you cry
TTITLE10=Willow, weep for me
TTITLE11=I cried for you
TTITLE12=My heart cries for you (Bonus Tears)
TTITLE13=I wake up crying (Bonus Tears)
TTITLE14=Drown in my own tears (Bonus Tears)
TTITLE15=Teardrops in my heart (Bonus Tears)
TTITLE16=Crying time (Bonus Tears)
TTITLE17=No use crying (Bonus Tears)
TTITLE18=Tired of my tears (Bonus Tears)
EXTD=
EXTT0=
EXTT1=
EXTT2=
EXTT3=
EXTT4=
EXTT5=
EXTT6=
EXTT7=
EXTT8=
EXTT9=
EXTT10=
EXTT11=
EXTT12=
EXTT13=
EXTT14=
EXTT15=
EXTT16=
EXTT17=
EXTT18=
PLAYORDER=
